<svg xmlns="http://www.w3.org/2000/svg" width="1120" height="720" viewBox="0 0 1120 720">
<rect width="100%" height="100%" fill="#ffffff"/>
<text x="560.0" y="44" font-family="Helvetica, Arial, sans-serif" font-size="28" font-weight="700" text-anchor="middle" fill="#1a202c">TowerDataset Ablation Chart</text>
<line x1="100" y1="540.00" x2="1060" y2="540.00" stroke="#e2e8f0" stroke-width="1"/>
<text x="86" y="545.00" font-family="Helvetica, Arial, sans-serif" font-size="14" text-anchor="end" fill="#4a5568">0</text>
<line x1="100" y1="450.00" x2="1060" y2="450.00" stroke="#e2e8f0" stroke-width="1"/>
<text x="86" y="455.00" font-family="Helvetica, Arial, sans-serif" font-size="14" text-anchor="end" fill="#4a5568">0.2</text>
<line x1="100" y1="360.00" x2="1060" y2="360.00" stroke="#e2e8f0" stroke-width="1"/>
<text x="86" y="365.00" font-family="Helvetica, Arial, sans-serif" font-size="14" text-anchor="end" fill="#4a5568">0.4</text>
<line x1="100" y1="270.00" x2="1060" y2="270.00" stroke="#e2e8f0" stroke-width="1"/>
<text x="86" y="275.00" font-family="Helvetica, Arial, sans-serif" font-size="14" text-anchor="end" fill="#4a5568">0.6</text>
<line x1="100" y1="180.00" x2="1060" y2="180.00" stroke="#e2e8f0" stroke-width="1"/>
<text x="86" y="185.00" font-family="Helvetica, Arial, sans-serif" font-size="14" text-anchor="end" fill="#4a5568">0.8</text>
<line x1="100" y1="90.00" x2="1060" y2="90.00" stroke="#e2e8f0" stroke-width="1"/>
<text x="86" y="95.00" font-family="Helvetica, Arial, sans-serif" font-size="14" text-anchor="end" fill="#4a5568">1</text>
<line x1="100" y1="90" x2="100" y2="540" stroke="#1a202c" stroke-width="2"/>
<line x1="100" y1="540" x2="1060" y2="540" stroke="#1a202c" stroke-width="2"/>
<rect x="126.88" y="232.20" width="37.79" height="307.80" rx="2" fill="#2358a5"/>
<rect x="172.96" y="409.05" width="37.79" height="130.95" rx="2" fill="#2f855a"/>
<rect x="219.04" y="385.20" width="37.79" height="154.80" rx="2" fill="#c05621"/>
<g transform="translate(196.00,568) rotate(35)"><text font-family="Helvetica, Arial, sans-serif" font-size="14" text-anchor="start" fill="#2d3748">Block-wise PTv3</text></g>
<rect x="318.88" y="220.05" width="37.79" height="319.95" rx="2" fill="#2358a5"/>
<rect x="364.96" y="379.80" width="37.79" height="160.20" rx="2" fill="#2f855a"/>
<rect x="411.04" y="359.55" width="37.79" height="180.45" rx="2" fill="#c05621"/>
<g transform="translate(388.00,568) rotate(35)"><text font-family="Helvetica, Arial, sans-serif" font-size="14" text-anchor="start" fill="#2d3748">Whole-scene PTv3</text></g>
<rect x="510.88" y="212.40" width="37.79" height="327.60" rx="2" fill="#2358a5"/>
<rect x="556.96" y="350.55" width="37.79" height="189.45" rx="2" fill="#2f855a"/>
<rect x="603.04" y="332.10" width="37.79" height="207.90" rx="2" fill="#c05621"/>
<g transform="translate(580.00,568) rotate(35)"><text font-family="Helvetica, Arial, sans-serif" font-size="14" text-anchor="start" fill="#2d3748">Whole-scene + Focal</text></g>
<rect x="702.88" y="208.80" width="37.79" height="331.20" rx="2" fill="#2358a5"/>
<rect x="748.96" y="338.85" width="37.79" height="201.15" rx="2" fill="#2f855a"/>
<rect x="795.04" y="322.65" width="37.79" height="217.35" rx="2" fill="#c05621"/>
<g transform="translate(772.00,568) rotate(35)"><text font-family="Helvetica, Arial, sans-serif" font-size="14" text-anchor="start" fill="#2d3748">Whole-scene + Proto-CL</text></g>
<rect x="894.88" y="202.05" width="37.79" height="337.95" rx="2" fill="#2358a5"/>
<rect x="940.96" y="317.25" width="37.79" height="222.75" rx="2" fill="#2f855a"/>
<rect x="987.04" y="312.75" width="37.79" height="227.25" rx="2" fill="#c05621"/>
<g transform="translate(964.00,568) rotate(35)"><text font-family="Helvetica, Arial, sans-serif" font-size="14" text-anchor="start" fill="#2d3748">Full Model</text></g>
<rect x="820" y="61" width="16" height="16" rx="3" fill="#2358a5"/>
<text x="844" y="74" font-family="Helvetica, Arial, sans-serif" font-size="14" fill="#2d3748">mIoU</text>
<rect x="820" y="85" width="16" height="16" rx="3" fill="#2f855a"/>
<text x="844" y="98" font-family="Helvetica, Arial, sans-serif" font-size="14" fill="#2d3748">Jumper IoU</text>
<rect x="820" y="109" width="16" height="16" rx="3" fill="#c05621"/>
<text x="844" y="122" font-family="Helvetica, Arial, sans-serif" font-size="14" fill="#2d3748">V-Ins IoU</text>
<text x="580.0" y="676" font-family="Helvetica, Arial, sans-serif" font-size="16" text-anchor="middle" fill="#4a5568">Variant</text>
<g transform="translate(28,315.0) rotate(-90)"><text font-family="Helvetica, Arial, sans-serif" font-size="16" text-anchor="middle" fill="#4a5568">Value</text></g>
</svg>